# xmcd CD database file
#
# Track frame offsets:
#	150
#	15537
#	40111
#	58637
#	82853
#	98681
#	109125
#	129991
#	156604
#	188011
#	204804
#
# Disc length: 2903 seconds
#
# Revision: 0
# Processed by: cddbd v1.5.1PL0 Copyright (c) Steve Scherf et al.
# Submitted via: CDex 1.51
#
DISCID=7f0b550b
DTITLE=Pat Tuzzolino - Spirt of One
DYEAR=1999
DGENRE=Jazz
TTITLE0=Don't Be That Way
TTITLE1=That's the Way of the World
TTITLE2=Learnin the Blues
TTITLE3=Love Ballad
TTITLE4=Luck Be A Lady
TTITLE5=White Cliffs of Dover
TTITLE6=Please Be Kind
TTITLE7=Gotta Lotta Livin'
TTITLE8=We Wanted It All
TTITLE9=Sahara Dessert
TTITLE10=Nothin' But the Best
EXTD=YEAR: 1999
EXTT0=
EXTT1=
EXTT2=
EXTT3=
EXTT4=
EXTT5=
EXTT6=
EXTT7=
EXTT8=
EXTT9=
EXTT10=
PLAYORDER=
